<?xml version="1.0" encoding="UTF-8"?>
<svg id="Capa_1" data-name="Capa 1" xmlns="http://www.w3.org/2000/svg" viewBox="0 0 3656.08 768.51">
  <defs>
    <style>
      .cls-1, .cls-2 {
        fill: #fff;
      }

      .cls-2, .cls-3 {
        fill-rule: evenodd;
      }

      .cls-4, .cls-3 {
        fill: #036;
      }

      .cls-5 {
        opacity: .7;
      }
    </style>
  </defs>
  <path class="cls-3" d="M53,711.95V41.95h1352.22v670H53Z"/>
  <g class="cls-5">
    <g>
      <path class="cls-4" d="M1577.5,133.39v128.5c0,14.08,3.67,24.84,11.01,32.27,7.33,7.44,17.65,11.16,30.94,11.16s23.89-3.72,31.23-11.16c7.33-7.44,11.01-18.19,11.01-32.27v-128.5h41.94v128.21c0,17.65-3.82,32.57-11.45,44.77-7.64,12.19-17.85,21.37-30.64,27.51-12.79,6.15-27.02,9.22-42.69,9.22s-29.5-3.07-42.09-9.22c-12.6-6.14-22.56-15.32-29.9-27.51-7.34-12.2-11.01-27.12-11.01-44.77v-128.21h41.65Z"/>
      <path class="cls-4" d="M1928.8,341.02h-41.65l-94.3-142.49v142.49h-41.65v-207.93h41.65l94.3,142.78v-142.78h41.65v207.93Z"/>
      <path class="cls-4" d="M2018.93,133.39v207.63h-41.65v-207.63h41.65Z"/>
      <path class="cls-4" d="M2253.92,133.39l-76.15,207.63h-50.57l-76.15-207.63h44.62l57.11,165.09,56.82-165.09h44.32Z"/>
      <path class="cls-4" d="M2327.99,167v52.06h69.9v33.02h-69.9v55.03h78.83v33.91h-120.47v-207.93h120.47v33.91h-78.83Z"/>
      <path class="cls-4" d="M2559.12,341.02l-45.81-80.91h-19.63v80.91h-41.65v-207.63h77.94c16.06,0,29.75,2.83,41.05,8.48,11.3,5.65,19.78,13.29,25.43,22.9,5.65,9.62,8.48,20.38,8.48,32.27,0,13.68-3.97,26.03-11.9,37.03-7.93,11.01-19.74,18.59-35.4,22.76l49.68,84.18h-48.19ZM2493.68,228.87h34.8c11.3,0,19.73-2.72,25.28-8.18,5.55-5.45,8.33-13.04,8.33-22.76s-2.78-16.91-8.33-22.16c-5.55-5.25-13.98-7.88-25.28-7.88h-34.8v60.98Z"/>
      <path class="cls-4" d="M2682.72,335.66c-11.6-4.96-20.78-12.09-27.52-21.42-6.74-9.32-10.22-20.33-10.41-33.02h44.62c.59,8.53,3.62,15.27,9.07,20.23,5.45,4.96,12.94,7.44,22.46,7.44s17.35-2.33,22.9-6.99c5.55-4.66,8.33-10.76,8.33-18.29,0-6.15-1.89-11.2-5.65-15.17-3.77-3.96-8.48-7.09-14.13-9.37-5.65-2.28-13.44-4.81-23.35-7.58-13.49-3.96-24.44-7.88-32.87-11.75-8.43-3.87-15.67-9.71-21.71-17.55-6.05-7.83-9.07-18.29-9.07-31.38,0-12.29,3.07-23,9.22-32.13,6.14-9.12,14.77-16.11,25.88-20.97,11.1-4.86,23.8-7.29,38.08-7.29,21.42,0,38.82,5.21,52.2,15.62,13.39,10.41,20.77,24.94,22.16,43.58h-45.81c-.4-7.14-3.42-13.04-9.07-17.7-5.65-4.66-13.14-6.99-22.46-6.99-8.13,0-14.63,2.08-19.48,6.25-4.86,4.16-7.29,10.22-7.29,18.15,0,5.55,1.83,10.16,5.5,13.83,3.67,3.67,8.23,6.64,13.68,8.92,5.45,2.28,13.14,4.91,23.05,7.88,13.48,3.97,24.49,7.93,33.02,11.9,8.52,3.97,15.86,9.92,22.01,17.85,6.14,7.94,9.22,18.35,9.22,31.23,0,11.11-2.88,21.42-8.63,30.94-5.75,9.52-14.18,17.1-25.28,22.76-11.11,5.65-24.29,8.48-39.56,8.48-14.48,0-27.52-2.48-39.12-7.44Z"/>
      <path class="cls-4" d="M2880.38,133.39v207.63h-41.65v-207.63h41.65Z"/>
      <path class="cls-4" d="M3059,146.18c16.56,8.53,29.35,20.67,38.37,36.44,9.02,15.77,13.53,34.06,13.53,54.88s-4.51,39.02-13.53,54.58c-9.03,15.57-21.82,27.62-38.37,36.14-16.56,8.53-35.75,12.79-57.56,12.79h-72.58v-207.63h72.58c21.81,0,41,4.27,57.56,12.79ZM3050.53,287.77c11.9-11.9,17.85-28.65,17.85-50.27s-5.95-38.52-17.85-50.72c-11.9-12.2-28.76-18.29-50.57-18.29h-29.45v137.13h29.45c21.81,0,38.67-5.95,50.57-17.85Z"/>
      <path class="cls-4" d="M3276.9,301.45h-82.7l-13.68,39.56h-43.73l74.66-207.93h48.49l74.66,207.93h-44.02l-13.68-39.56ZM3265.59,268.14l-30.04-86.86-30.04,86.86h60.09Z"/>
      <path class="cls-4" d="M3500.14,146.18c16.56,8.53,29.35,20.67,38.37,36.44,9.02,15.77,13.53,34.06,13.53,54.88s-4.51,39.02-13.53,54.58c-9.03,15.57-21.82,27.62-38.37,36.14-16.56,8.53-35.75,12.79-57.56,12.79h-72.58v-207.63h72.58c21.81,0,41,4.27,57.56,12.79ZM3491.66,287.77c11.9-11.9,17.85-28.65,17.85-50.27s-5.95-38.52-17.85-50.72c-11.9-12.2-28.76-18.29-50.57-18.29h-29.45v137.13h29.45c21.81,0,38.67-5.95,50.57-17.85Z"/>
    </g>
    <g>
      <path class="cls-4" d="M1673.26,420.06c17.29,8.91,30.65,21.59,40.08,38.06,9.42,16.46,14.14,35.57,14.14,57.32s-4.71,40.75-14.14,57.01c-9.43,16.26-22.79,28.84-40.08,37.75-17.3,8.91-37.33,13.36-60.11,13.36h-75.8v-216.85h75.8c22.78,0,42.82,4.46,60.11,13.36ZM1664.41,567.94c12.43-12.43,18.64-29.92,18.64-52.5s-6.21-40.23-18.64-52.97c-12.43-12.74-30.03-19.11-52.81-19.11h-30.76v143.22h30.76c22.78,0,40.39-6.21,52.81-18.64Z"/>
      <path class="cls-4" d="M1809.8,441.81v54.37h73.01v34.48h-73.01v57.47h82.33v35.42h-125.82v-217.16h125.82v35.42h-82.33Z"/>
      <path class="cls-4" d="M2254.36,406.71v216.85h-43.49v-141.04l-58.1,141.04h-32.93l-58.41-141.04v141.04h-43.49v-216.85h49.4l68.97,161.24,68.97-161.24h49.08Z"/>
      <path class="cls-4" d="M2346.93,441.81v54.37h73.01v34.48h-73.01v57.47h82.33v35.42h-125.82v-217.16h125.82v35.42h-82.33Z"/>
      <path class="cls-4" d="M2660.4,623.55h-43.49l-98.48-148.81v148.81h-43.49v-217.16h43.49l98.48,149.12v-149.12h43.49v217.16Z"/>
      <path class="cls-4" d="M2845.4,420.06c17.29,8.91,30.65,21.59,40.08,38.06,9.42,16.46,14.14,35.57,14.14,57.32s-4.71,40.75-14.14,57.01c-9.43,16.26-22.79,28.84-40.08,37.75-17.3,8.91-37.33,13.36-60.11,13.36h-75.8v-216.85h75.8c22.78,0,42.82,4.46,60.11,13.36ZM2836.54,567.94c12.43-12.43,18.64-29.92,18.64-52.5s-6.21-40.23-18.64-52.97c-12.43-12.74-30.03-19.11-52.81-19.11h-30.76v143.22h30.76c22.78,0,40.39-6.21,52.81-18.64Z"/>
      <path class="cls-4" d="M2983.18,611.44c-16.99-9.52-30.45-22.73-40.39-39.61-9.94-16.88-14.91-35.98-14.91-57.32s4.97-40.12,14.91-57.01c9.94-16.88,23.4-30.08,40.39-39.61,16.98-9.52,35.62-14.29,55.92-14.29s39.19,4.77,56.08,14.29c16.88,9.53,30.24,22.73,40.08,39.61,9.83,16.88,14.76,35.88,14.76,57.01s-4.92,40.44-14.76,57.32c-9.84,16.88-23.25,30.09-40.23,39.61-16.98,9.53-35.62,14.29-55.92,14.29s-38.94-4.76-55.92-14.29ZM3073.58,578.04c9.94-5.9,17.71-14.34,23.3-25.32,5.59-10.98,8.39-23.71,8.39-38.21s-2.8-27.18-8.39-38.06c-5.59-10.88-13.36-19.21-23.3-25.01-9.94-5.79-21.44-8.7-34.48-8.7s-24.6,2.9-34.64,8.7c-10.05,5.8-17.86,14.14-23.46,25.01-5.59,10.87-8.39,23.56-8.39,38.06s2.8,27.24,8.39,38.21c5.59,10.98,13.41,19.42,23.46,25.32,10.04,5.9,21.59,8.85,34.64,8.85s24.54-2.95,34.48-8.85Z"/>
      <path class="cls-4" d="M3232.95,586.89h97.55v36.66h-147.88v-33.55l96.93-146.64h-96.93v-36.66h147.88v33.55l-97.55,146.64Z"/>
      <path class="cls-4" d="M3506.64,582.23h-86.37l-14.29,41.32h-45.67l77.98-217.16h50.64l77.98,217.16h-45.98l-14.29-41.32ZM3494.84,547.44l-31.38-90.72-31.38,90.72h62.75Z"/>
    </g>
  </g>
  <g>
    <g>
      <path class="cls-2" d="M1275.66,390.33h0c-15.85,0-29.17-11.99-30.93-27.83l-24.94-225.53c-.28-2.45-2.19-4.38-4.67-4.38-1.69,0-3.32.91-3.99,2.26l-94.95,207.83-90.26-208.54s-.01-.03-.02-.05l-.09-.2h-.05c-.42-.76-1.2-1.29-2.12-1.29h-70.81c-1.36,0-2.46,1.11-2.46,2.48s1.1,2.48,2.46,2.48h8.35c10.8,0,19.56,8.69,19.79,19.49,0,42.62,0,136.86,0,136.86-.26,67.09-33.98,90.73-75.56,90.73s-75.57-23.41-75.57-91.5c0-.88.04-137.49.04-137.49,0-9.84,7.82-17.83,17.55-18.07v-.02h3.64c1.36,0,2.46-1.11,2.46-2.48s-1.1-2.48-2.46-2.48h-76.91c-1.36,0-2.46,1.11-2.46,2.48s1.1,2.48,2.46,2.48h4.8c10.91,0,19.76,8.9,19.76,19.87v141.31h.06c1.18,67.14,46.44,101.41,102.13,101.41s102.18-35.56,102.18-104.11v-128.88l97.59,225.33c.97,2.64,3.47,4.53,6.43,4.53,2.78,0,5.16-1.66,6.24-4.05v.02s87.38-190.31,87.38-190.31l17,182c.26,2.78-.85,5.79-3.35,7-.95.46-1.59,1.79-1.59,2.56,0,1.85,1.44,2.78,3.27,2.78h59.58c1.83,0,3.32-1.5,3.32-3.34s-1.49-3.34-3.32-3.34Z"/>
      <g>
        <path class="cls-1" d="M800.37,504.46v-17.95c0-.9,0-1.61-.03-2.15-.02-.54-.05-1.05-.09-1.52-.08-1.04-.28-1.81-.6-2.33-.31-.52-.97-.88-1.96-1.08-.24-.08-.56-.13-.98-.15-.42-.02-.77-.03-1.04-.03-.31,0-.48-.12-.48-.36,0-.32.32-.48.95-.48.67,0,1.38,0,2.11.03.73.02,1.42.04,2.07.06.65.02,1.22.04,1.71.06.49.02.79.03.91.03s.41,0,.88-.03c.47-.02,1-.04,1.59-.06.59-.02,1.19-.04,1.81-.06.61-.02,1.13-.03,1.57-.03.63,0,.95.16.95.48,0,.24-.16.36-.48.36-.2,0-.41,0-.62.03s-.5.07-.86.15c-.79.12-1.34.46-1.64,1.02-.3.56-.49,1.35-.56,2.39-.04.48-.07.99-.09,1.52-.02.54-.03,1.25-.03,2.15v17.6c0,2.15.11,4.01.33,5.59.22,1.57.53,2.94.92,4.09.4,1.16.87,2.14,1.43,2.96.56.82,1.15,1.52,1.79,2.12,1.47,1.39,2.91,2.29,4.32,2.69,1.41.4,2.97.6,4.67.6,1.83,0,3.57-.4,5.24-1.2,1.67-.8,3.04-1.83,4.11-3.11,1.39-1.71,2.31-3.8,2.77-6.27.46-2.47.69-5.26.69-8.37v-16.7c0-.9,0-1.61-.03-2.15-.02-.54-.05-1.05-.09-1.52-.08-1.04-.28-1.81-.6-2.33-.31-.52-.97-.88-1.96-1.08-.24-.08-.56-.13-.98-.15-.42-.02-.76-.03-1.04-.03-.32,0-.48-.12-.48-.36,0-.32.32-.48.95-.48.67,0,1.37,0,2.08.03.71.02,1.36.04,1.96.06.59.02,1.1.04,1.51.06.41.02.66.03.74.03.12,0,.36,0,.71-.03.35-.02.78-.04,1.28-.06.49-.02,1.01-.04,1.54-.06.54-.02,1.02-.03,1.46-.03.64,0,.95.16.95.48,0,.24-.16.36-.47.36-.2,0-.41,0-.62.03-.22.02-.5.07-.87.15-.79.2-1.33.56-1.63,1.08-.3.52-.49,1.29-.56,2.33-.04.48-.07.99-.09,1.52-.02.54-.03,1.25-.03,2.15v15.62c0,1.63-.06,3.28-.18,4.93-.12,1.65-.38,3.27-.77,4.84-.4,1.57-.95,3.05-1.67,4.42-.71,1.37-1.67,2.6-2.86,3.68-1.07.96-2.15,1.72-3.25,2.3-1.09.58-2.15,1.03-3.18,1.34-1.04.32-2.05.53-3.04.63-1,.1-1.93.15-2.8.15-.52,0-1.24-.03-2.17-.09-.93-.06-1.98-.23-3.12-.51-1.15-.28-2.33-.71-3.54-1.29-1.21-.58-2.35-1.36-3.43-2.36-.7-.72-1.37-1.52-1.99-2.42-.63-.9-1.18-1.97-1.65-3.23-.47-1.25-.83-2.7-1.09-4.33-.25-1.63-.38-3.55-.38-5.74Z"/>
        <path class="cls-1" d="M853.95,486.83l.77,28.62c.04,1.23.11,2.26.21,3.08.1.82.24,1.49.41,2.03.18.54.41.95.69,1.22.28.28.61.48,1.01.6.55.16,1.12.26,1.69.3.57.04,1,.06,1.28.06.32,0,.48.12.48.36,0,.32-.35.48-1.07.48-1.7,0-3.11-.03-4.22-.09-1.11-.06-1.8-.09-2.08-.09s-.96.03-2.05.09c-1.09.06-2.31.09-3.66.09-.63,0-.95-.16-.95-.48,0-.24.16-.36.48-.36.24,0,.59-.02,1.07-.06.48-.04.93-.14,1.37-.3.75-.2,1.24-.84,1.46-1.91.22-1.08.32-2.97.32-5.68l.06-34.24c0-1.16.05-1.94.15-2.36s.27-.63.5-.63.56.24.98.72c.42.48.78.88,1.1,1.2.24.24.92.99,2.05,2.24,1.13,1.25,2.56,2.82,4.31,4.69,1.74,1.87,3.69,3.98,5.85,6.33,2.16,2.35,4.39,4.76,6.68,7.23,1.47,1.59,2.94,3.21,4.43,4.84,1.49,1.64,2.88,3.17,4.19,4.6,1.31,1.43,2.46,2.7,3.45,3.79.99,1.1,1.72,1.88,2.2,2.36l-.66-30.35c-.04-1.95-.2-3.33-.5-4.12-.3-.8-.9-1.31-1.81-1.55-.56-.12-1.12-.2-1.69-.24-.58-.04-.98-.06-1.22-.06-.32,0-.48-.14-.48-.42s.4-.42,1.19-.42c.67,0,1.34,0,1.99.03.66.02,1.27.04,1.84.06.58.02,1.07.04,1.49.06.41.02.7.03.86.03.32,0,.93-.03,1.84-.09.91-.06,1.98-.09,3.21-.09.71,0,1.07.14,1.07.42s-.22.42-.65.42c-.16,0-.35,0-.56.03-.22.02-.5.07-.87.15-.99.2-1.6.69-1.84,1.46-.24.78-.36,2.06-.36,3.86l-.12,35.01c0,1-.01,1.77-.03,2.33-.02.56-.05.98-.09,1.25-.04.28-.09.46-.15.54-.06.08-.15.12-.27.12s-.27-.05-.44-.15c-.18-.1-.43-.29-.74-.57-.31-.28-.72-.67-1.22-1.17-.49-.5-1.14-1.15-1.93-1.94-.16-.16-.76-.77-1.81-1.82-1.05-1.05-2.33-2.37-3.83-3.94-1.51-1.57-3.13-3.28-4.87-5.11-1.74-1.83-3.41-3.6-4.99-5.32-1.74-1.87-3.44-3.71-5.08-5.53-1.65-1.81-3.16-3.5-4.55-5.05-1.39-1.55-2.59-2.9-3.63-4.03-1.03-1.14-1.78-1.98-2.26-2.54Z"/>
        <path class="cls-1" d="M914.38,495.73v10.52c0,2.87,0,5.43.03,7.68.02,2.25.11,4.01.27,5.29.08.88.26,1.61.53,2.21.28.6.87.96,1.78,1.07.44.08.92.14,1.46.18.54.04.94.06,1.22.06.32,0,.48.12.48.36,0,.32-.32.48-.95.48-.83,0-1.67,0-2.5-.03-.83-.02-1.59-.04-2.29-.06-.69-.02-1.27-.04-1.72-.06-.45-.02-.72-.03-.8-.03s-.35,0-.8.03c-.46.02-.98.04-1.58.06-.59.02-1.21.04-1.84.06-.63.02-1.17.03-1.6.03-.64,0-.95-.16-.95-.48,0-.24.16-.36.47-.36.28,0,.58-.02.89-.06.32-.04.62-.1.89-.18.6-.12,1-.48,1.22-1.07.22-.6.39-1.34.5-2.21.16-1.28.25-3.04.27-5.29.02-2.25.03-4.81.03-7.68v-19.75c0-.9,0-1.61-.03-2.15-.02-.54-.05-1.05-.09-1.52-.12-1.95-.79-3.07-2.02-3.35-.31-.08-.65-.14-1.01-.18-.35-.04-.64-.06-.83-.06-.31,0-.47-.12-.47-.36,0-.32.31-.48.95-.48.47,0,1.05,0,1.72.03.67.02,1.31.04,1.9.06.59.02,1.12.04,1.58.06.45.02.72.03.8.03s.35,0,.8-.03c.46-.02.98-.04,1.58-.06.59-.02,1.21-.04,1.84-.06.63-.02,1.17-.03,1.6-.03.64,0,.95.16.95.48,0,.24-.16.36-.48.36-.2,0-.41,0-.62.03-.22.02-.5.07-.86.15-.79.16-1.34.51-1.63,1.05-.3.54-.49,1.32-.56,2.36-.04.48-.07.99-.09,1.52-.02.54-.03,1.25-.03,2.15v9.23Z"/>
        <path class="cls-1" d="M937.01,485.69l11.41,30.59c.56-1.31,1.23-2.96,2.02-4.93.79-1.97,1.63-4.06,2.5-6.27.87-2.21,1.75-4.46,2.64-6.75.89-2.29,1.71-4.44,2.47-6.45.75-2.01,1.4-3.79,1.93-5.35.53-1.55.92-2.69,1.16-3.41.16-.44.29-.86.39-1.25.1-.4.15-.74.15-1.02,0-.24-.05-.49-.15-.75-.1-.26-.31-.47-.63-.63-.35-.12-.74-.19-1.16-.21s-.78-.03-1.1-.03c-.44,0-.66-.12-.66-.36,0-.32.44-.48,1.31-.48,1.19,0,2.37.03,3.54.09,1.17.06,1.93.09,2.29.09.08,0,.29,0,.62-.03.33-.02.73-.04,1.19-.06.46-.02.93-.04,1.43-.06.49-.02.96-.03,1.4-.03.67,0,1.01.14,1.01.42s-.24.42-.71.42c-.2,0-.58.03-1.16.09-.57.06-1.14.27-1.69.63-.2.12-.41.29-.62.51-.22.22-.46.54-.71.96-.26.42-.54.97-.86,1.64-.32.68-.67,1.51-1.07,2.51-.16.44-.46,1.18-.89,2.21-.44,1.04-.95,2.29-1.54,3.76-.6,1.47-1.26,3.09-1.99,4.84-.73,1.75-1.48,3.55-2.23,5.38-1.82,4.38-3.39,8.13-4.69,11.23-1.31,3.11-2.3,5.4-2.97,6.87-.83,1.79-1.39,3-1.66,3.61-.28.62-.56.93-.83.93-.36,0-.67-.26-.92-.78-.26-.52-.66-1.49-1.22-2.93l-14.56-36.63c-.31-.84-.62-1.51-.92-2.03-.3-.52-.61-.94-.92-1.28-.31-.34-.67-.6-1.07-.78-.39-.18-.85-.35-1.36-.51-.44-.12-.87-.19-1.31-.21-.44-.02-.75-.03-.95-.03-.32,0-.48-.14-.48-.42s.51-.42,1.54-.42c.71,0,1.45,0,2.2.03.75.02,1.44.04,2.08.06.63.02,1.19.04,1.67.06.47.02.81.03,1.01.03.31,0,1.03-.03,2.14-.09,1.11-.06,2.24-.09,3.39-.09,1.07,0,1.6.14,1.6.42s-.2.42-.59.42c-.32,0-.71.02-1.16.06-.46.04-.82.12-1.1.24-.31.16-.52.35-.62.57-.1.22-.15.43-.15.63,0,.4.16,1.04.48,1.91.31.88.69,1.89,1.13,3.05Z"/>
        <path class="cls-1" d="M979.61,506.25v-19.75c0-.9-.01-1.61-.03-2.15-.02-.54-.05-1.05-.09-1.52-.08-1.04-.28-1.81-.6-2.33-.31-.52-.97-.88-1.96-1.08-.24-.08-.56-.13-.98-.15s-.76-.03-1.04-.03c-.32,0-.48-.12-.48-.36,0-.32.32-.48.95-.48h2.14c.75,0,1.46.02,2.14.06l2.44.12h6.45c1.6,0,3.11,0,4.51-.03,1.41-.02,2.29-.03,2.65-.03,1.15-.08,2-.18,2.55-.3.16-.04.3-.1.42-.18.12-.08.26-.12.41-.12s.24.18.24.54c0,.2-.06.51-.18.93-.12.42-.22,1.05-.3,1.88,0,.16,0,.42-.03.78-.02.36-.05.75-.09,1.17-.04.42-.07.82-.09,1.2-.02.38-.05.65-.09.81-.04.16-.09.31-.15.45-.06.14-.15.21-.27.21-.31,0-.47-.26-.47-.78,0-.2-.02-.52-.06-.96-.04-.44-.14-.84-.3-1.2-.2-.48-.55-.89-1.07-1.22-.51-.34-1.56-.61-3.15-.81-.24-.04-.77-.07-1.61-.09-.83-.02-1.7-.04-2.61-.06-.91-.02-1.75-.03-2.52-.03h-1.4c-.24,0-.36.2-.36.6v16.49c0,.4.12.6.36.6h4.49c1.05,0,2.05,0,3-.03.95-.02,1.61-.05,1.96-.09.71-.08,1.29-.16,1.72-.24.44-.08.79-.28,1.07-.6.44-.52.73-.78.89-.78.2,0,.3.16.3.48,0,.2-.06.56-.18,1.08-.12.52-.22,1.28-.3,2.27-.04.32-.07.67-.09,1.05-.02.38-.04.76-.06,1.14-.02.38-.04.72-.06,1.02-.02.3-.03.51-.03.63,0,.24-.02.49-.06.75-.04.26-.16.39-.36.39-.28,0-.42-.18-.42-.54,0-.32,0-.63-.03-.93-.02-.3-.09-.65-.21-1.05-.12-.44-.38-.87-.77-1.29-.4-.42-1.17-.69-2.32-.81-.4-.04-1.02-.08-1.87-.12-.85-.04-1.72-.07-2.62-.09-.89-.02-1.72-.04-2.49-.06-.77-.02-1.28-.03-1.52-.03-.28,0-.42.14-.42.42v15.43c.04,1.03.15,1.87.33,2.5.18.64.51,1.13,1.01,1.49.49.36,1.18.6,2.05.72.87.12,2.04.18,3.5.18.79,0,1.74-.03,2.85-.09,1.11-.06,2.06-.25,2.85-.57.79-.32,1.39-.81,1.78-1.47.4-.66.69-1.6.89-2.84.12-.6.3-.9.54-.9.2,0,.3.1.32.3.02.2.03.4.03.6,0,.12-.03.43-.09.92-.06.5-.13,1.06-.21,1.67-.08.62-.16,1.23-.24,1.83-.08.6-.16,1.06-.24,1.39-.12.41-.24.72-.35.92s-.3.36-.54.46c-.24.1-.53.16-.89.18-.36.02-.83.03-1.43.03-2.26,0-4.21-.02-5.85-.06-1.64-.04-3.04-.08-4.19-.12-1.15-.08-2.1-.13-2.85-.15-.75-.02-1.34-.03-1.78-.03h-.77c-.44,0-.97.02-1.61.06-.6,0-1.21.02-1.84.06-.64.04-1.17.06-1.61.06-.63,0-.95-.16-.95-.48,0-.24.16-.36.48-.36.28,0,.57-.02.89-.06.31-.04.61-.1.89-.18.59-.12,1-.48,1.22-1.07.22-.6.39-1.34.5-2.21.16-1.28.25-3.04.27-5.29.02-2.25.03-4.81.03-7.68Z"/>
        <path class="cls-1" d="M1064.21,524.41c-1.39,0-2.75-.12-4.1-.35-1.34-.23-2.64-.64-3.86-1.22-.44-.19-.69-.42-.77-.67-.08-.26-.12-.78-.12-1.58,0-1.51.04-2.83.12-3.94.08-1.11.14-1.91.18-2.39.04-.64.2-.96.48-.96s.42.22.42.66c0,.28,0,.61.03.99s.07.79.15,1.22c.24,1.12.63,2.06,1.19,2.84.55.78,1.24,1.4,2.05,1.88.81.48,1.69.83,2.65,1.05.95.22,1.92.33,2.91.33,1.42,0,2.67-.24,3.74-.72,1.07-.48,1.95-1.09,2.64-1.82.69-.74,1.22-1.59,1.57-2.54.36-.96.54-1.91.54-2.87,0-1.04-.12-1.98-.36-2.84-.24-.86-.63-1.7-1.16-2.51-.54-.82-1.24-1.65-2.11-2.51-.87-.86-1.94-1.82-3.21-2.9l-2.67-2.21c-1.59-1.32-2.87-2.53-3.86-3.65-.99-1.12-1.78-2.2-2.35-3.26-.58-1.06-.97-2.07-1.19-3.05-.22-.98-.32-1.98-.32-3.02,0-1.59.29-3.05.86-4.37.57-1.32,1.4-2.45,2.47-3.41,1.07-.96,2.36-1.69,3.86-2.21,1.51-.52,3.21-.78,5.11-.78,1.15,0,2.17.05,3.06.15.89.1,1.71.25,2.47.45.55.12.98.2,1.28.24.3.04.56.06.8.06.4,0,.59.14.59.42,0,.16-.04.75-.12,1.76-.08,1.02-.12,2.54-.12,4.57,0,.92-.14,1.37-.42,1.37-.2,0-.32-.07-.36-.21-.04-.14-.08-.33-.12-.57-.04-.36-.13-.87-.27-1.52-.14-.66-.31-1.15-.5-1.46-.08-.16-.26-.42-.53-.78-.28-.36-.71-.72-1.28-1.07-.58-.36-1.32-.67-2.23-.93-.91-.26-2.04-.39-3.39-.39-2.06,0-3.79.61-5.2,1.82-1.41,1.21-2.11,2.92-2.11,5.11,0,.84.1,1.62.32,2.36.22.74.6,1.49,1.16,2.24.56.76,1.3,1.57,2.23,2.45.93.88,2.11,1.87,3.53,2.99l1.67,1.32c1.74,1.39,3.18,2.69,4.31,3.88s2.02,2.34,2.67,3.44c.65,1.1,1.1,2.19,1.34,3.29.24,1.1.35,2.24.35,3.44,0,.6-.07,1.32-.21,2.15-.14.84-.4,1.71-.77,2.63-.38.92-.89,1.82-1.55,2.72-.66.9-1.49,1.7-2.52,2.42-1.27.92-2.67,1.56-4.22,1.94-1.54.38-3.13.57-4.75.57Z"/>
        <path class="cls-1" d="M1098.91,495.73v10.52c0,2.87,0,5.43.03,7.68.02,2.25.11,4.01.27,5.29.08.88.26,1.61.54,2.21.28.6.87.96,1.78,1.07.44.08.92.14,1.46.18.53.04.94.06,1.22.06.32,0,.48.12.48.36,0,.32-.32.48-.95.48-.83,0-1.67,0-2.5-.03-.83-.02-1.59-.04-2.28-.06-.69-.02-1.27-.04-1.72-.06-.46-.02-.72-.03-.8-.03s-.35,0-.8.03c-.46.02-.98.04-1.57.06-.6.02-1.21.04-1.84.06-.64.02-1.17.03-1.61.03-.63,0-.95-.16-.95-.48,0-.24.16-.36.48-.36.28,0,.57-.02.89-.06s.61-.1.89-.18c.59-.12,1-.48,1.22-1.07.22-.6.39-1.34.5-2.21.16-1.28.25-3.04.27-5.29.02-2.25.03-4.81.03-7.68v-19.75c0-.9,0-1.61-.03-2.15-.02-.54-.05-1.05-.09-1.52-.12-1.95-.79-3.07-2.02-3.35-.31-.08-.65-.14-1.01-.18-.35-.04-.63-.06-.83-.06-.32,0-.48-.12-.48-.36,0-.32.31-.48.95-.48.48,0,1.05,0,1.72.03.67.02,1.3.04,1.9.06.59.02,1.11.04,1.57.06.45.02.72.03.8.03s.35,0,.8-.03c.46-.02.98-.04,1.58-.06.59-.02,1.21-.04,1.84-.06.63-.02,1.17-.03,1.6-.03.64,0,.95.16.95.48,0,.24-.16.36-.47.36-.2,0-.41,0-.62.03-.22.02-.5.07-.87.15-.79.16-1.33.51-1.63,1.05-.3.54-.49,1.32-.56,2.36-.04.48-.07.99-.09,1.52-.02.54-.03,1.25-.03,2.15v9.23Z"/>
        <path class="cls-1" d="M1120.06,506.25v-19.75c0-.9,0-1.61-.03-2.15-.02-.54-.05-1.05-.09-1.52-.08-1.04-.28-1.81-.6-2.33-.31-.52-.97-.88-1.96-1.08-.24-.08-.56-.13-.98-.15-.42-.02-.77-.03-1.04-.03-.31,0-.47-.12-.47-.36,0-.32.31-.48.95-.48.67,0,1.38,0,2.14.03.75.02,1.46.04,2.11.06.65.02,1.21.04,1.66.06.46.02.72.03.8.03.16,0,.5,0,1.04-.03.54-.02,1.17-.04,1.9-.06.73-.02,1.54-.04,2.41-.06.87-.02,1.76-.03,2.67-.03,1.47,0,3.2,0,5.2.03,2,.02,4.09.23,6.27.63,2.18.4,4.34,1.07,6.48,2,2.14.94,4.1,2.32,5.88,4.15.75.8,1.48,1.69,2.17,2.69.69,1,1.3,2.12,1.84,3.38.53,1.25.96,2.64,1.28,4.15.31,1.51.47,3.17.47,4.96s-.18,3.64-.53,5.32c-.36,1.67-.83,3.22-1.43,4.63-.59,1.42-1.28,2.7-2.05,3.86-.77,1.16-1.58,2.17-2.41,3.05-.63.68-1.46,1.41-2.47,2.21-1.01.8-2.25,1.54-3.71,2.24-1.47.7-3.17,1.28-5.11,1.73-1.94.46-4.18.69-6.72.69-1.27,0-2.65-.04-4.13-.12-1.49-.08-2.86-.16-4.13-.24-1.31-.08-2.42-.16-3.33-.24-.91-.08-1.45-.12-1.6-.12h-.77c-.44,0-.97.02-1.61.06-.59,0-1.21.02-1.84.06-.63.04-1.17.06-1.6.06-.63,0-.95-.16-.95-.48,0-.24.16-.36.48-.36.28,0,.57-.02.89-.06.31-.04.62-.1.89-.18.59-.12,1-.48,1.22-1.07.22-.6.39-1.34.5-2.21.16-1.28.25-3.04.27-5.29.02-2.25.03-4.81.03-7.68ZM1125.05,494.78v11.95c0,1.43.01,2.73.03,3.88.02,1.16.04,2.13.06,2.93.02.8.03,1.34.03,1.61,0,.36.02.77.06,1.22.04.46.08.91.12,1.34.04.44.1.84.18,1.2.08.36.18.62.3.78.2.28.5.56.92.84.41.28,1.01.54,1.78.78.77.24,1.76.43,2.97.57,1.21.14,2.68.21,4.43.21,2.77,0,5.38-.48,7.81-1.43,2.44-.96,4.55-2.33,6.33-4.12.75-.75,1.43-1.67,2.02-2.75.59-1.08,1.1-2.24,1.51-3.5.41-1.25.72-2.56.92-3.91.2-1.35.3-2.73.3-4.12,0-1.91-.18-3.65-.53-5.2-.35-1.55-.82-2.96-1.4-4.21-.57-1.25-1.2-2.35-1.87-3.29-.67-.94-1.31-1.72-1.9-2.36-1.39-1.47-2.85-2.66-4.4-3.56-1.54-.9-3.13-1.58-4.75-2.06-1.63-.48-3.3-.79-5.02-.93-1.72-.14-3.47-.21-5.26-.21-.31,0-.66,0-1.04.03-.38.02-.76.05-1.16.09-.4.04-.74.09-1.04.15-.3.06-.5.11-.62.15-.47.2-.71.6-.71,1.2,0,.52,0,1.26-.03,2.21-.02.96-.03,2.02-.03,3.2v7.32Z"/>
        <path class="cls-1" d="M1169.01,517l13.49-37.1c.36-.99.61-1.63.77-1.91.16-.28.34-.42.53-.42s.37.13.53.39c.16.26.42.85.77,1.76.16.4.52,1.34,1.1,2.84.57,1.49,1.27,3.33,2.08,5.5.81,2.17,1.71,4.55,2.7,7.14.99,2.59,1.97,5.15,2.94,7.68.97,2.53,1.9,4.93,2.79,7.2.89,2.27,1.63,4.16,2.23,5.68.51,1.32,1.02,2.39,1.51,3.23.49.84.95,1.49,1.37,1.97s.81.82,1.19,1.02c.37.2.72.34,1.04.42.44.16.87.26,1.28.3.42.04.78.06,1.1.06.39,0,.59.12.59.36,0,.2-.12.33-.35.39-.24.06-.51.09-.83.09h-3.47c-.85,0-1.78,0-2.79-.03-1.01-.02-2.03-.05-3.06-.09-.55-.04-.99-.07-1.3-.09-.32-.02-.48-.13-.48-.33s.14-.34.42-.42c.2-.08.35-.25.48-.51.12-.26.08-.63-.12-1.11l-5.52-14.7c-.12-.24-.3-.36-.53-.36h-12.77c-.28,0-.48.16-.59.48l-3.57,10.58c-.55,1.55-.83,2.89-.83,4,0,.6.25,1.04.74,1.32.49.28,1,.42,1.51.42h.59c.4,0,.6.12.6.36,0,.32-.3.48-.89.48-.36,0-.77,0-1.25-.03-.48-.02-.93-.04-1.37-.06-.44-.02-.84-.04-1.22-.06-.38-.02-.65-.03-.8-.03s-.47,0-.92.03c-.46.02-1,.04-1.64.06-.63.02-1.3.04-2.02.06-.71.02-1.42.03-2.14.03-.75,0-1.13-.16-1.13-.48,0-.24.18-.36.53-.36.2,0,.48,0,.83-.03.36-.02.66-.05.89-.09,1.39-.2,2.43-.81,3.12-1.82.69-1.02,1.32-2.28,1.87-3.79ZM1177.33,503.8h11.35c.24,0,.31-.14.24-.42l-5.64-16.13c-.32-.88-.61-.88-.89,0l-5.23,16.13c-.12.28-.06.42.18.42Z"/>
        <path class="cls-1" d="M1215.53,506.25v-19.75c0-.9,0-1.61-.03-2.15-.02-.54-.05-1.05-.09-1.52-.08-1.04-.28-1.81-.59-2.33-.32-.52-.97-.88-1.96-1.08-.24-.08-.56-.13-.98-.15-.42-.02-.76-.03-1.04-.03-.32,0-.48-.12-.48-.36,0-.32.31-.48.95-.48.67,0,1.38,0,2.14.03.75.02,1.46.04,2.11.06.65.02,1.21.04,1.67.06.45.02.72.03.8.03.16,0,.5,0,1.04-.03.53-.02,1.17-.04,1.9-.06.73-.02,1.54-.04,2.41-.06.87-.02,1.76-.03,2.67-.03,1.47,0,3.2,0,5.2.03,2,.02,4.09.23,6.27.63,2.18.4,4.34,1.07,6.47,2,2.14.94,4.1,2.32,5.88,4.15.75.8,1.48,1.69,2.17,2.69.69,1,1.31,2.12,1.84,3.38.54,1.25.96,2.64,1.28,4.15.31,1.51.48,3.17.48,4.96s-.18,3.64-.53,5.32c-.36,1.67-.83,3.22-1.43,4.63-.59,1.42-1.28,2.7-2.05,3.86-.77,1.16-1.58,2.17-2.41,3.05-.64.68-1.46,1.41-2.47,2.21-1.01.8-2.25,1.54-3.72,2.24-1.46.7-3.17,1.28-5.11,1.73-1.94.46-4.18.69-6.71.69-1.27,0-2.65-.04-4.13-.12-1.48-.08-2.86-.16-4.13-.24-1.3-.08-2.42-.16-3.32-.24-.91-.08-1.45-.12-1.61-.12h-.77c-.44,0-.97.02-1.6.06-.59,0-1.21.02-1.84.06-.63.04-1.17.06-1.6.06-.64,0-.95-.16-.95-.48,0-.24.16-.36.47-.36.28,0,.58-.02.89-.06.32-.04.62-.1.89-.18.6-.12,1-.48,1.22-1.07.22-.6.39-1.34.5-2.21.16-1.28.25-3.04.27-5.29.02-2.25.03-4.81.03-7.68ZM1220.52,494.78v11.95c0,1.43,0,2.73.03,3.88.02,1.16.04,2.13.06,2.93.02.8.03,1.34.03,1.61,0,.36.02.77.06,1.22.04.46.08.91.12,1.34.04.44.1.84.18,1.2.08.36.18.62.3.78.2.28.5.56.92.84.41.28,1.01.54,1.78.78.77.24,1.76.43,2.97.57,1.21.14,2.68.21,4.43.21,2.77,0,5.38-.48,7.81-1.43,2.43-.96,4.54-2.33,6.33-4.12.75-.75,1.42-1.67,2.02-2.75.59-1.08,1.1-2.24,1.51-3.5.42-1.25.72-2.56.92-3.91.2-1.35.3-2.73.3-4.12,0-1.91-.18-3.65-.54-5.2-.35-1.55-.82-2.96-1.4-4.21-.57-1.25-1.2-2.35-1.87-3.29-.68-.94-1.31-1.72-1.9-2.36-1.39-1.47-2.85-2.66-4.4-3.56-1.54-.9-3.13-1.58-4.75-2.06-1.62-.48-3.3-.79-5.02-.93-1.72-.14-3.48-.21-5.26-.21-.32,0-.67,0-1.04.03-.38.02-.76.05-1.16.09-.39.04-.74.09-1.04.15-.3.06-.5.11-.62.15-.48.2-.71.6-.71,1.2,0,.52-.01,1.26-.03,2.21-.02.96-.03,2.02-.03,3.2v7.32Z"/>
        <path class="cls-1" d="M1049.66,522.57c-.2,0-.49,0-.89-.03-.39-.02-.87-.07-1.43-.15-.75-.12-1.74-.44-2.97-.96-1.23-.52-2.65-1.63-4.28-3.34-1.61-1.73-8.76-14.38-8.76-14.38.69-.26,1.4-.62,2.03-1.15,2.52-2.38,4.31-4.66,5.34-6.84,1.07-2.25,1.6-4.49,1.6-6.72,0-1.03-.15-1.99-.45-2.87-.3-.87-.65-1.65-1.07-2.33-.42-.68-.86-1.26-1.34-1.76-.48-.5-.89-.89-1.25-1.16-1.58-1.15-3.32-1.88-5.2-2.18-1.88-.3-3.77-.45-5.67-.45-.48,0-1.07,0-1.78.03-.71.02-1.44.04-2.17.06-.73.02-1.38.04-1.96.06-.57.02-.94.03-1.1.03-.08,0-.35,0-.8-.03-.46-.02-1.01-.04-1.66-.06-.65-.02-1.36-.04-2.11-.06-.75-.02-1.47-.03-2.14-.03-.63,0-.95.16-.95.48,0,.24.16.36.48.36.28,0,.62,0,1.04.03.42.02.74.07.98.15.99.2,1.64.56,1.96,1.08.32.52.51,1.29.6,2.33.04.48.07.99.09,1.52.02.54.03,1.25.03,2.15v19.74c0,2.87-.01,5.43-.03,7.67-.02,2.25-.11,4.01-.27,5.29-.12.87-.29,1.61-.5,2.21-.22.6-.63.96-1.22,1.07-.28.08-.58.14-.89.18-.32.04-.62.06-.89.06-.32,0-.48.12-.48.36,0,.32.32.48.95.48.44,0,.97,0,1.61-.03.63-.02,1.25-.04,1.84-.06.59-.02,1.3-.05,2.14-.09.08,0,.35,0,.8.03.46.02,1.03.04,1.72.06.69.02,1.45.04,2.28.06.83.02,1.66.03,2.5.03.63,0,.95-.16.95-.48,0-.24-.16-.36-.48-.36-.28,0-.68-.02-1.22-.06-.53-.04-1.02-.1-1.45-.18-.91-.12-1.5-.48-1.78-1.07-.28-.6-.46-1.33-.54-2.21-.16-1.28-.25-3.04-.27-5.29-.02-2.25-.03-4.81-.03-7.67v-1.43c0-.32.14-.48.41-.48l5.58.08h0c.27,0,.53.16.76.4.28.4,6.59,12.97,7.78,14.43,1.19,1.45,2.41,2.52,3.68,3.19.75.44,1.58.74,2.49.9.91.16,2.2.24,3.86.24h3.59c.56,0,.93-.03,1.13-.09.2-.06.3-.19.3-.39,0-.24-.18-.36-.53-.36ZM1021.01,501.49c-.28-.16-.41-.4-.41-.72v-19.53c0-.36.16-.6.47-.72.32-.08.83-.16,1.55-.24.71-.08,1.52-.12,2.43-.12,3.21,0,5.72,1.06,7.54,3.17,1.82,2.11,2.73,5.04,2.73,8.78,0,2.27-.35,4.19-1.04,5.76-.69,1.57-1.56,2.72-2.59,3.43-.67.48-1.41.79-2.2.93-.79.14-1.54.21-2.25.21-1.31,0-2.57-.09-3.77-.27-1.21-.18-2.03-.41-2.47-.69Z"/>
      </g>
      <g>
        <path class="cls-1" d="M754.84,598.89v-24.37c0-1.11-.01-1.99-.04-2.65-.03-.66-.06-1.29-.11-1.88-.1-1.28-.34-2.24-.73-2.88-.39-.64-1.2-1.08-2.42-1.33-.3-.1-.7-.16-1.21-.18-.51-.02-.94-.04-1.28-.04-.39,0-.59-.15-.59-.44,0-.39.39-.59,1.17-.59.83,0,1.71.01,2.64.04.93.03,1.8.05,2.6.07.81.03,1.49.05,2.06.07.56.02.89.04.99.04.19,0,.62-.01,1.28-.04.66-.02,1.44-.05,2.35-.07.9-.02,1.89-.05,2.97-.07,1.08-.02,2.18-.04,3.3-.04,1.81,0,3.95.01,6.41.04,2.47.03,5.05.28,7.74.77,2.69.49,5.35,1.32,7.99,2.47,2.64,1.16,5.06,2.86,7.26,5.13.93.98,1.82,2.09,2.68,3.32.86,1.23,1.61,2.62,2.27,4.17.66,1.55,1.19,3.26,1.58,5.12.39,1.87.59,3.91.59,6.12s-.22,4.5-.66,6.56c-.44,2.07-1.03,3.97-1.76,5.72-.73,1.75-1.58,3.33-2.53,4.76-.95,1.43-1.94,2.68-2.97,3.76-.78.84-1.8,1.74-3.04,2.73-1.25.98-2.78,1.91-4.58,2.76-1.81.86-3.91,1.58-6.31,2.14-2.4.56-5.16.85-8.29.85-1.56,0-3.26-.05-5.1-.15-1.83-.1-3.53-.2-5.09-.3-1.62-.1-2.98-.2-4.11-.29-1.12-.1-1.79-.15-1.98-.15h-.95c-.54,0-1.2.02-1.98.07-.73,0-1.49.03-2.27.08-.78.05-1.44.07-1.98.07-.78,0-1.17-.2-1.17-.59,0-.29.19-.44.58-.44.34,0,.71-.02,1.1-.07.39-.05.76-.12,1.1-.22.73-.15,1.23-.59,1.5-1.33.27-.74.48-1.65.62-2.73.2-1.57.3-3.75.33-6.53.02-2.78.04-5.94.04-9.47ZM761,584.73v14.75c0,1.77.01,3.37.04,4.8.02,1.42.05,2.63.07,3.61.02.98.04,1.65.04,1.99,0,.44.02.95.07,1.51.05.57.1,1.12.15,1.66.05.54.12,1.03.22,1.47.1.44.22.76.37.96.25.35.62.69,1.14,1.03.51.35,1.25.67,2.2.96.95.3,2.17.53,3.67.7,1.49.17,3.31.26,5.46.26,3.42,0,6.64-.59,9.64-1.77,3.01-1.18,5.61-2.87,7.81-5.09.93-.93,1.76-2.06,2.49-3.39.73-1.33,1.36-2.77,1.87-4.31.51-1.55.89-3.16,1.14-4.83.25-1.67.37-3.37.37-5.09,0-2.36-.22-4.5-.66-6.42-.44-1.92-1.02-3.65-1.72-5.2-.71-1.55-1.48-2.9-2.31-4.06-.83-1.15-1.61-2.13-2.35-2.91-1.71-1.82-3.52-3.28-5.42-4.39-1.91-1.11-3.86-1.95-5.87-2.54-2-.59-4.07-.97-6.2-1.14-2.13-.17-4.29-.26-6.49-.26-.39,0-.82.01-1.28.04-.47.02-.94.06-1.43.11-.49.05-.92.11-1.28.18-.37.07-.62.14-.77.18-.59.25-.88.74-.88,1.48,0,.64-.01,1.55-.04,2.73-.03,1.18-.04,2.5-.04,3.94v9.03Z"/>
        <path class="cls-1" d="M821.2,598.89v-24.37c0-1.11-.01-1.99-.04-2.65-.03-.66-.06-1.29-.11-1.88-.1-1.28-.34-2.24-.73-2.88-.39-.64-1.2-1.08-2.42-1.33-.3-.1-.7-.16-1.21-.18-.51-.02-.94-.04-1.28-.04-.39,0-.59-.15-.59-.44,0-.39.39-.59,1.17-.59h2.64c.93,0,1.81.02,2.64.07l3.01.15h7.96c1.98,0,3.84-.01,5.57-.04,1.73-.02,2.82-.04,3.26-.04,1.42-.1,2.47-.22,3.15-.37.19-.05.36-.12.51-.22.15-.1.32-.15.51-.15s.29.22.29.66c0,.25-.07.63-.22,1.14-.15.52-.27,1.29-.37,2.32,0,.2-.01.52-.04.96-.03.44-.06.92-.11,1.44-.05.52-.09,1.01-.11,1.47-.03.47-.06.8-.11,1-.05.2-.11.38-.18.55-.07.17-.18.26-.33.26-.39,0-.59-.32-.59-.96,0-.25-.03-.64-.08-1.18-.05-.54-.17-1.03-.36-1.48-.25-.59-.69-1.09-1.32-1.51-.64-.42-1.93-.75-3.89-1-.29-.05-.95-.09-1.98-.11-1.03-.02-2.1-.05-3.23-.07-1.12-.02-2.16-.04-3.12-.04h-1.72c-.3,0-.44.25-.44.74v20.35c0,.49.15.74.44.74h5.54c1.29,0,2.53-.01,3.7-.04,1.17-.02,1.98-.06,2.42-.11.88-.1,1.59-.2,2.13-.3.54-.1.98-.34,1.32-.74.54-.64.9-.96,1.1-.96.25,0,.37.2.37.59,0,.25-.07.69-.22,1.33-.15.64-.27,1.57-.37,2.8-.05.39-.09.82-.11,1.29-.03.47-.05.93-.08,1.4-.02.47-.05.89-.07,1.25-.03.37-.04.63-.04.77,0,.3-.03.6-.08.92-.05.32-.19.48-.44.48-.34,0-.51-.22-.51-.66,0-.4-.01-.78-.04-1.14-.02-.37-.11-.8-.26-1.29-.15-.54-.47-1.07-.95-1.59-.49-.52-1.44-.85-2.86-1-.49-.05-1.26-.1-2.31-.15-1.05-.05-2.13-.09-3.23-.11-1.1-.02-2.13-.05-3.08-.07-.95-.02-1.58-.04-1.87-.04-.34,0-.51.17-.51.51v19.05c.05,1.27.18,2.3.4,3.09.22.78.64,1.4,1.25,1.84.61.44,1.45.74,2.53.88,1.08.15,2.52.22,4.33.22.98,0,2.15-.04,3.52-.11,1.37-.07,2.54-.31,3.52-.7.98-.39,1.71-1,2.2-1.81.49-.81.86-1.98,1.1-3.5.14-.74.36-1.1.66-1.1.24,0,.38.12.4.37.02.24.04.49.04.74,0,.15-.04.53-.11,1.14-.08.62-.16,1.3-.26,2.06-.1.76-.2,1.52-.29,2.25-.1.75-.2,1.32-.3,1.72-.14.5-.29.88-.44,1.13-.15.25-.37.44-.66.57-.3.13-.66.2-1.1.23-.44.02-1.03.04-1.76.04-2.79,0-5.2-.02-7.22-.07-2.03-.05-3.75-.1-5.17-.15-1.42-.1-2.59-.16-3.52-.18-.93-.03-1.66-.04-2.2-.04h-.95c-.54,0-1.2.02-1.98.07-.73,0-1.49.03-2.27.08-.78.05-1.44.07-1.98.07-.78,0-1.17-.2-1.17-.59,0-.29.19-.44.58-.44.34,0,.71-.02,1.1-.07.39-.05.76-.12,1.1-.22.73-.15,1.23-.59,1.5-1.33.27-.74.48-1.65.62-2.73.2-1.57.3-3.75.33-6.53.02-2.78.04-5.94.04-9.47Z"/>
        <path class="cls-1" d="M938.45,565.48l4.91,45.35c.05.69.15,1.42.29,2.21.15.79.35,1.55.62,2.28.27.74.65,1.41,1.14,2.03.49.62,1.12,1.05,1.91,1.29,1.08.34,2.04.54,2.89.59s1.48.07,1.87.07.59.13.59.37-.15.42-.44.52c-.3.1-.66.15-1.1.15h-2.2c-1.08,0-2.25,0-3.52-.04-1.27-.02-2.5-.06-3.7-.11-1.2-.05-2.14-.1-2.83-.15-.83-.1-1.38-.19-1.65-.29-.27-.1-.4-.25-.4-.45,0-.29.17-.46.51-.51.2-.05.32-.33.37-.85.05-.51.03-1.12-.07-1.81l-3.52-38.27h-.22l-17.97,38.35c-.78,1.62-1.29,2.68-1.54,3.17-.25.49-.54.74-.88.74-.25,0-.51-.23-.81-.7-.3-.47-.78-1.36-1.47-2.69-.49-.88-1.19-2.25-2.09-4.09-.9-1.84-1.82-3.7-2.75-5.57-.93-1.87-1.76-3.53-2.49-4.98-.73-1.45-1.15-2.27-1.25-2.47-.1-.2-.39-.81-.88-1.85-.49-1.03-1.08-2.27-1.76-3.72-.69-1.45-1.41-3.01-2.16-4.68-.76-1.67-1.48-3.25-2.16-4.72-.69-1.47-1.27-2.76-1.76-3.87-.49-1.11-.81-1.83-.95-2.17h-.29l-2.93,34.22c-.05.59-.07,1.2-.07,1.84v1.92c0,.54.18,1.03.55,1.47.37.44.82.71,1.36.81.64.15,1.2.25,1.69.3.49.05.86.07,1.1.07.39,0,.59.12.59.37,0,.44-.44.66-1.32.66-.69,0-1.39-.01-2.13-.04-.73-.03-1.43-.05-2.09-.07-.66-.03-1.22-.05-1.68-.08-.47-.03-.77-.04-.92-.04s-.47,0-.95.04c-.49.03-1.04.05-1.65.08-.61.02-1.24.05-1.87.07-.64.02-1.2.04-1.69.04-.83,0-1.25-.22-1.25-.66,0-.25.24-.37.73-.37.3,0,.6-.01.92-.04.32-.03.74-.09,1.28-.18,1.22-.25,1.98-.97,2.27-2.18.3-1.2.51-2.52.66-3.95l5.28-48.08c.1-.89.37-1.33.81-1.33.39,0,.76.37,1.1,1.11l22.44,46.38,21.56-46.31c.34-.79.71-1.18,1.1-1.18.44,0,.73.66.88,1.99Z"/>
        <path class="cls-1" d="M965.8,598.89v-24.37c0-1.11-.01-1.99-.04-2.65-.03-.66-.06-1.29-.11-1.88-.1-1.28-.34-2.24-.73-2.88-.39-.64-1.2-1.08-2.42-1.33-.3-.1-.7-.16-1.21-.18-.51-.02-.94-.04-1.28-.04-.39,0-.59-.15-.59-.44,0-.39.39-.59,1.17-.59h2.64c.93,0,1.81.02,2.64.07l3.01.15h7.96c1.98,0,3.84-.01,5.57-.04,1.73-.02,2.82-.04,3.26-.04,1.42-.1,2.47-.22,3.15-.37.19-.05.36-.12.51-.22s.32-.15.51-.15.29.22.29.66c0,.25-.07.63-.22,1.14-.15.52-.27,1.29-.37,2.32,0,.2-.01.52-.04.96-.03.44-.06.92-.11,1.44-.05.52-.09,1.01-.11,1.47-.03.47-.06.8-.11,1-.05.2-.11.38-.18.55-.07.17-.18.26-.33.26-.39,0-.59-.32-.59-.96,0-.25-.03-.64-.08-1.18-.05-.54-.17-1.03-.36-1.48-.25-.59-.69-1.09-1.32-1.51-.64-.42-1.93-.75-3.89-1-.29-.05-.95-.09-1.98-.11-1.03-.02-2.1-.05-3.23-.07-1.12-.02-2.16-.04-3.12-.04h-1.72c-.3,0-.44.25-.44.74v20.35c0,.49.15.74.44.74h5.54c1.29,0,2.53-.01,3.7-.04,1.17-.02,1.98-.06,2.42-.11.88-.1,1.59-.2,2.13-.3.54-.1.98-.34,1.32-.74.54-.64.9-.96,1.1-.96.25,0,.37.2.37.59,0,.25-.07.69-.22,1.33-.15.64-.27,1.57-.37,2.8-.05.39-.09.82-.11,1.29-.03.47-.05.93-.08,1.4-.02.47-.05.89-.07,1.25-.03.37-.04.63-.04.77,0,.3-.03.6-.08.92-.05.32-.19.48-.44.48-.34,0-.51-.22-.51-.66,0-.4-.01-.78-.04-1.14-.02-.37-.11-.8-.26-1.29-.15-.54-.47-1.07-.95-1.59-.49-.52-1.44-.85-2.86-1-.49-.05-1.26-.1-2.31-.15-1.05-.05-2.13-.09-3.23-.11-1.1-.02-2.13-.05-3.08-.07-.95-.02-1.58-.04-1.87-.04-.34,0-.51.17-.51.51v19.05c.05,1.27.18,2.3.4,3.09.22.78.64,1.4,1.25,1.84.61.44,1.45.74,2.53.88,1.08.15,2.52.22,4.33.22.98,0,2.15-.04,3.52-.11,1.37-.07,2.54-.31,3.52-.7.98-.39,1.71-1,2.2-1.81.49-.81.86-1.98,1.1-3.5.14-.74.36-1.1.66-1.1.24,0,.38.12.4.37.02.24.04.49.04.74,0,.15-.04.53-.11,1.14-.08.62-.16,1.3-.26,2.06-.1.76-.2,1.52-.29,2.25-.1.75-.2,1.32-.3,1.72-.14.5-.29.88-.44,1.13-.15.25-.37.44-.66.57-.3.13-.66.2-1.1.23-.44.02-1.03.04-1.76.04-2.79,0-5.2-.02-7.22-.07-2.03-.05-3.75-.1-5.17-.15-1.42-.1-2.59-.16-3.52-.18-.93-.03-1.66-.04-2.2-.04h-.95c-.54,0-1.2.02-1.98.07-.73,0-1.49.03-2.27.08-.78.05-1.44.07-1.98.07-.78,0-1.17-.2-1.17-.59,0-.29.19-.44.58-.44.34,0,.71-.02,1.1-.07.39-.05.76-.12,1.1-.22.73-.15,1.23-.59,1.5-1.33.27-.74.48-1.65.62-2.73.2-1.57.3-3.75.33-6.53.02-2.78.04-5.94.04-9.47Z"/>
        <path class="cls-1" d="M1011.56,574.92l.95,35.32c.05,1.52.13,2.79.26,3.8.12,1.01.29,1.84.51,2.51.22.67.5,1.17.84,1.51.34.35.76.59,1.25.74.69.19,1.38.32,2.09.37.71.05,1.23.07,1.58.07.39,0,.59.15.59.44,0,.39-.44.59-1.32.59-2.1,0-3.84-.04-5.21-.11-1.37-.08-2.23-.11-2.57-.11s-1.19.04-2.53.11c-1.34.07-2.85.11-4.51.11-.78,0-1.17-.2-1.17-.59,0-.29.2-.44.59-.44.3,0,.73-.02,1.32-.07.59-.05,1.15-.17,1.68-.37.93-.25,1.53-1.03,1.8-2.36.27-1.33.4-3.66.4-7.01l.08-42.26c0-1.43.06-2.4.18-2.91.12-.52.33-.77.62-.77s.69.3,1.21.89c.51.59.96,1.08,1.36,1.47.29.3,1.14,1.22,2.53,2.77,1.39,1.55,3.16,3.48,5.32,5.79,2.15,2.31,4.56,4.92,7.22,7.82,2.66,2.9,5.42,5.87,8.25,8.92,1.81,1.97,3.63,3.96,5.46,5.97,1.84,2.01,3.56,3.91,5.17,5.68,1.62,1.77,3.03,3.33,4.25,4.68,1.22,1.35,2.13,2.32,2.71,2.91l-.81-37.46c-.05-2.41-.26-4.11-.63-5.09-.36-.98-1.11-1.62-2.24-1.92-.69-.15-1.38-.25-2.09-.3-.71-.05-1.21-.07-1.5-.07-.39,0-.59-.17-.59-.52s.49-.52,1.47-.52c.83,0,1.65.01,2.46.04.81.03,1.56.05,2.27.07.71.03,1.32.05,1.84.07.51.02.87.04,1.06.04.39,0,1.15-.04,2.27-.11,1.12-.07,2.45-.11,3.96-.11.88,0,1.32.17,1.32.52s-.27.52-.81.52c-.2,0-.43.01-.7.04-.27.02-.62.09-1.06.18-1.22.25-1.98.85-2.27,1.81-.3.96-.44,2.54-.44,4.76l-.14,43.21c0,1.23-.01,2.19-.04,2.88-.02.69-.06,1.2-.11,1.55-.05.34-.11.56-.18.66s-.18.15-.33.15-.33-.06-.55-.18c-.22-.13-.53-.36-.92-.7-.39-.34-.89-.82-1.5-1.44-.61-.61-1.41-1.41-2.38-2.4-.19-.19-.94-.95-2.24-2.25-1.29-1.3-2.87-2.92-4.73-4.87-1.86-1.94-3.86-4.04-6.01-6.3-2.15-2.26-4.21-4.45-6.16-6.57-2.15-2.31-4.24-4.58-6.27-6.82-2.03-2.24-3.9-4.32-5.61-6.23-1.71-1.92-3.2-3.58-4.47-4.98-1.27-1.4-2.2-2.44-2.79-3.13Z"/>
        <path class="cls-1" d="M1077.04,598.89v-24.37c0-1.11-.01-1.99-.04-2.65-.03-.66-.06-1.29-.11-1.88-.1-1.28-.34-2.24-.73-2.88-.39-.64-1.2-1.08-2.42-1.33-.29-.1-.69-.16-1.21-.18-.51-.02-.94-.04-1.28-.04-.39,0-.59-.15-.59-.44,0-.39.39-.59,1.17-.59.83,0,1.71.01,2.64.04.93.03,1.8.05,2.6.07.81.03,1.49.05,2.05.07.56.02.89.04.99.04.2,0,.62-.01,1.28-.04.66-.02,1.44-.05,2.35-.07.9-.02,1.89-.05,2.97-.07,1.07-.02,2.17-.04,3.3-.04,1.81,0,3.95.01,6.42.04,2.47.03,5.04.28,7.74.77,2.69.49,5.35,1.32,7.99,2.47,2.64,1.16,5.06,2.86,7.26,5.13.93.98,1.82,2.09,2.67,3.32.86,1.23,1.62,2.62,2.27,4.17.66,1.55,1.18,3.26,1.58,5.12.39,1.87.59,3.91.59,6.12s-.22,4.5-.66,6.56c-.44,2.07-1.03,3.97-1.76,5.72-.73,1.75-1.58,3.33-2.53,4.76-.95,1.43-1.94,2.68-2.97,3.76-.78.84-1.8,1.74-3.05,2.73-1.25.98-2.77,1.91-4.58,2.76-1.81.86-3.91,1.58-6.31,2.14-2.4.56-5.16.85-8.28.85-1.57,0-3.26-.05-5.1-.15-1.84-.1-3.53-.2-5.1-.3-1.61-.1-2.98-.2-4.11-.29-1.12-.1-1.78-.15-1.98-.15h-.95c-.54,0-1.2.02-1.98.07-.73,0-1.49.03-2.27.08-.78.05-1.44.07-1.98.07-.78,0-1.17-.2-1.17-.59,0-.29.19-.44.59-.44.34,0,.71-.02,1.1-.07.39-.05.76-.12,1.1-.22.73-.15,1.24-.59,1.5-1.33.27-.74.48-1.65.62-2.73.19-1.57.3-3.75.33-6.53.02-2.78.04-5.94.04-9.47ZM1083.2,584.73v14.75c0,1.77,0,3.37.04,4.8.02,1.42.05,2.63.07,3.61.03.98.04,1.65.04,1.99,0,.44.02.95.07,1.51.05.57.1,1.12.15,1.66.05.54.12,1.03.22,1.47.1.44.22.76.37.96.24.35.62.69,1.13,1.03.51.35,1.25.67,2.2.96.95.3,2.18.53,3.67.7,1.49.17,3.31.26,5.46.26,3.42,0,6.63-.59,9.64-1.77,3.01-1.18,5.61-2.87,7.81-5.09.93-.93,1.76-2.06,2.49-3.39.73-1.33,1.36-2.77,1.87-4.31.51-1.55.89-3.16,1.14-4.83.24-1.67.36-3.37.36-5.09,0-2.36-.22-4.5-.66-6.42-.44-1.92-1.02-3.65-1.72-5.2-.71-1.55-1.48-2.9-2.31-4.06-.83-1.15-1.61-2.13-2.35-2.91-1.71-1.82-3.52-3.28-5.43-4.39-1.9-1.11-3.86-1.95-5.86-2.54-2.01-.59-4.07-.97-6.2-1.14-2.13-.17-4.29-.26-6.49-.26-.39,0-.82.01-1.28.04-.47.02-.94.06-1.43.11-.49.05-.92.11-1.28.18-.37.07-.63.14-.77.18-.59.25-.88.74-.88,1.48,0,.64-.01,1.55-.04,2.73-.03,1.18-.04,2.5-.04,3.94v9.03Z"/>
        <path class="cls-1" d="M1135.93,592.33c0-1.96.24-4.05.73-6.27.49-2.21,1.25-4.39,2.27-6.53,1.03-2.14,2.31-4.18,3.85-6.12,1.54-1.94,3.38-3.65,5.54-5.12,2.15-1.48,4.59-2.64,7.33-3.5,2.74-.86,5.79-1.29,9.17-1.29,4.11,0,7.92.64,11.44,1.92,3.52,1.28,6.56,3.11,9.13,5.49,2.57,2.39,4.58,5.29,6.05,8.7,1.47,3.42,2.2,7.26,2.2,11.54s-.7,8.03-2.09,11.69c-1.39,3.67-3.36,6.86-5.9,9.59-2.54,2.73-5.62,4.89-9.24,6.49-3.62,1.6-7.62,2.4-12.02,2.4-5.04,0-9.35-.88-12.94-2.65-3.59-1.77-6.54-4.05-8.83-6.86-2.3-2.81-3.99-5.91-5.06-9.33-1.08-3.42-1.61-6.8-1.61-10.14ZM1142.89,590.26c0,4.28.6,8.16,1.8,11.65,1.2,3.49,2.86,6.46,4.99,8.92,2.13,2.46,4.61,4.35,7.44,5.68,2.84,1.33,5.91,1.99,9.24,1.99,1.66,0,3.64-.31,5.94-.92,2.3-.62,4.51-1.83,6.63-3.65,2.13-1.82,3.94-4.39,5.43-7.7,1.49-3.32,2.24-7.66,2.24-13.02,0-4.42-.62-8.33-1.87-11.73-1.25-3.39-2.9-6.23-4.95-8.52-2.06-2.29-4.43-4.02-7.11-5.2-2.69-1.18-5.48-1.77-8.36-1.77-3.08,0-5.93.5-8.54,1.51-2.62,1.01-4.87,2.53-6.78,4.57-1.91,2.04-3.4,4.57-4.47,7.6-1.08,3.02-1.61,6.55-1.61,10.58Z"/>
        <path class="cls-1" d="M1208.15,617.1h19.95c1.91,0,3.52-.09,4.84-.26,1.32-.17,2.41-.42,3.26-.74.86-.32,1.55-.7,2.09-1.14.54-.44,1-.93,1.39-1.47.34-.49.65-1.14.91-1.95.27-.81.45-1.49.55-2.03.15-.78.37-1.18.66-1.18.25,0,.41.11.48.33.07.22.11.68.11,1.36,0,.59-.06,1.27-.18,2.03-.12.76-.26,1.55-.41,2.36-.14.81-.3,1.59-.48,2.32-.17.74-.3,1.33-.4,1.77-.1.44-.2.79-.29,1.03-.1.25-.22.45-.37.59-.15.15-.33.23-.55.26-.22.02-.55.04-.99.04-6.16,0-12.32-.06-18.48-.18-6.16-.12-12.47-.18-18.92-.18-.88,0-1.32-.19-1.32-.59,0-.19.06-.42.18-.66.12-.25.4-.71.84-1.4,5.48-8.36,10.93-16.65,16.35-24.89,5.43-8.23,10.71-16.56,15.84-24.96h-15.91c-.93,0-1.89.01-2.9.04-1,.02-1.97.1-2.9.22-.93.12-1.81.28-2.64.48-.83.2-1.54.44-2.13.74-1.32.69-2.32,1.62-3.01,2.8-.69,1.18-1.08,2.19-1.17,3.02-.1.54-.21.9-.33,1.07-.12.17-.28.26-.48.26-.29,0-.44-.32-.44-.96,0-.19.06-.72.18-1.58.12-.86.26-1.81.4-2.84.15-1.03.3-2.05.48-3.06.17-1.01.3-1.78.4-2.32.15-.93.39-1.4.73-1.4s.7.07,1.06.22c.37.15,1.04.25,2.02.3,3.47.15,6.18.22,8.14.22h25.08c.98,0,1.47.2,1.47.59,0,.15-.01.27-.04.37-.03.1-.11.27-.26.52-5.33,8.55-10.73,17.03-16.2,25.44-5.48,8.41-11.03,16.89-16.65,25.44Z"/>
        <path class="cls-1" d="M1255.31,612.16l16.65-45.79c.44-1.23.76-2.02.95-2.36.19-.34.41-.52.66-.52s.47.16.66.48c.19.32.51,1.05.95,2.18.2.49.65,1.66,1.36,3.5.71,1.84,1.56,4.1,2.57,6.78,1,2.68,2.11,5.62,3.34,8.81,1.22,3.2,2.43,6.36,3.63,9.48,1.2,3.12,2.35,6.08,3.45,8.89,1.1,2.8,2.02,5.14,2.75,7.01.63,1.62,1.26,2.95,1.87,3.98.61,1.03,1.17,1.84,1.69,2.43.51.59,1,1.01,1.47,1.25.47.25.89.42,1.28.52.53.19,1.06.32,1.58.37.51.05.96.07,1.35.07.49,0,.73.15.73.44,0,.25-.15.41-.44.48-.3.07-.64.11-1.03.11h-4.29c-1.05,0-2.2-.01-3.45-.04-1.25-.03-2.51-.06-3.78-.11-.69-.05-1.22-.08-1.61-.11-.39-.03-.59-.16-.59-.41s.17-.42.51-.52c.24-.1.44-.31.59-.63.15-.32.1-.77-.15-1.36l-6.82-18.14c-.15-.3-.37-.44-.66-.44h-15.76c-.34,0-.59.2-.73.59l-4.4,13.05c-.69,1.92-1.03,3.57-1.03,4.94,0,.74.3,1.28.91,1.62.61.35,1.24.52,1.87.52h.73c.49,0,.73.15.73.44,0,.39-.37.59-1.1.59-.44,0-.95-.01-1.54-.04-.59-.03-1.15-.05-1.69-.07-.54-.03-1.04-.05-1.5-.08-.47-.03-.8-.04-.99-.04s-.58,0-1.14.04c-.56.03-1.24.05-2.02.08-.78.02-1.61.05-2.49.07-.88.02-1.76.04-2.64.04-.93,0-1.39-.2-1.39-.59,0-.29.22-.44.66-.44.25,0,.59-.01,1.03-.04.44-.03.81-.06,1.1-.11,1.71-.24,2.99-1,3.85-2.25.86-1.25,1.63-2.82,2.31-4.68ZM1265.57,595.87h14.01c.29,0,.39-.17.29-.52l-6.97-19.91c-.39-1.08-.76-1.08-1.1,0l-6.45,19.91c-.15.34-.08.52.22.52Z"/>
      </g>
    </g>
    <g>
      <path class="cls-2" d="M166.14,242.61c9.46-23.33,22.48-45.6,39.09-66.83,11.8-15.08,24.94-29.48,39.39-43.19h-88.64v143.26c2.35-11.24,5.73-22.32,10.16-33.24Z"/>
      <path class="cls-2" d="M311.46,182.72c-21.44,20.39-37.2,41.51-47.29,63.36-.4.88-.79,1.75-1.18,2.62,2.33-2.24,4.71-4.38,7.17-6.4,17.86-14.71,42.76-22.07,74.71-22.07,20.18,0,39.72,5.67,58.63,17.02,9.95,5.97,18.94,13.18,26.97,21.59h162.71v79.57h-126.2c.54,5.43.83,11,.83,16.73,0,12.38-1.2,24-3.57,34.88,3.01-.3,5.96-.56,8.86-.76,5.81-.4,11.64-.61,17.46-.61,31.33,0,57.85,6.3,79.57,18.89,21.71,12.6,38.38,29.25,50.03,49.97,5.89,10.49,10.28,21.44,13.19,32.87V132.59h-239.31c-33.63,13.03-61.16,29.74-82.59,50.12Z"/>
      <path class="cls-2" d="M277.42,410.32c9.66,5.68,20.38,8.51,32.15,8.51s23.01-2.41,32.47-7.25c9.46-4.83,16.91-11.98,22.38-21.44,5.46-9.46,8.2-20.9,8.2-34.36s-2.84-23.85-8.51-32.47c-5.67-8.61-13.24-15.13-22.7-19.55-9.46-4.41-20.08-6.62-31.84-6.62s-22.38,2.21-31.84,6.62c-9.46,4.41-17.02,10.31-22.7,17.65-5.67,7.36-8.51,15.24-8.51,23.64v15.13c0,10.09,2.73,19.54,8.2,28.37,5.46,8.83,13.02,16.08,22.7,21.75Z"/>
      <path class="cls-2" d="M400.6,551.38c8.06,8.94,19.58,16.36,34.58,22.24,14.99,5.89,29.43,8.84,43.31,8.84,10.29,0,19.91-2.03,28.87-6.09,8.95-4.06,16.11-10.15,21.49-18.28,5.37-8.12,8.06-18.07,8.06-29.86,0-13-2.8-24.38-8.39-34.13-5.6-9.75-13.66-17.37-24.17-22.85-10.52-5.49-22.95-8.23-37.27-8.23s-27.09,1.73-39.62,5.18c-9.79,2.7-20.95,6.83-33.47,12.37-2.05,1.1-4.12,2.18-6.24,3.2-23.54,11.35-48.34,17.02-74.4,17.02-30.26,0-57.59-7.14-81.96-21.44-24.38-14.28-43.72-35.31-58-63.05-8.1-15.72-13.9-33.4-17.41-53.04v258.04h194.8l49.81-69.93Z"/>
      <path class="cls-2" d="M617.49,597.7c-5.35,8.59-11.48,16.45-18.37,23.61h34.24v-60.87c-3.34,13.19-8.62,25.61-15.88,37.26Z"/>
    </g>
  </g>
</svg>